<svg width="20" height="21" viewBox="0 0 20 21" fill="none" xmlns="http://www.w3.org/2000/svg">
<path d="M19.6875 10.5C19.6875 15.8516 15.3125 20.1875 10 20.1875C4.64844 20.1875 0.3125 15.8516 0.3125 10.5C0.3125 5.1875 4.64844 0.8125 10 0.8125C15.3125 0.8125 19.6875 5.1875 19.6875 10.5ZM8.86719 15.6562L16.0547 8.46875C16.2891 8.23438 16.2891 7.80469 16.0547 7.57031L15.1562 6.71094C14.9219 6.4375 14.5312 6.4375 14.2969 6.71094L8.4375 12.5703L5.66406 9.83594C5.42969 9.5625 5.03906 9.5625 4.80469 9.83594L3.90625 10.6953C3.67188 10.9297 3.67188 11.3594 3.90625 11.5938L7.96875 15.6562C8.20312 15.8906 8.63281 15.8906 8.86719 15.6562Z" fill="#757575"/>
</svg>
