<svg width="146" height="145" viewBox="0 0 146 145" fill="none" xmlns="http://www.w3.org/2000/svg">
<path d="M82.375 8.46875C82.375 3.78125 86.4766 0.265625 90.8711 1.4375C122.219 9.64062 145.656 38.0586 145.656 71.75C145.656 111.887 113.137 144.406 73 144.406C32.8633 144.699 0.34375 112.473 0.34375 72.3359C0.0507812 38.3516 23.1953 9.64062 54.543 1.4375C59.2305 0.265625 63.625 3.78125 63.625 8.46875V13.1562C63.625 16.3789 61.2812 19.0156 58.3516 19.8945C35.5 26.3398 19.0938 47.1406 19.0938 71.75C19.0938 101.633 43.1172 125.656 73 125.656C102.59 125.656 126.906 101.633 126.906 71.75C126.906 47.1406 110.207 26.3398 87.3555 19.8945C84.4258 19.0156 82.375 16.3789 82.375 13.1562V8.46875Z" fill="#F3F3F3"/>
</svg>
