<svg width="52" height="40" viewBox="0 0 52 40" fill="none" xmlns="http://www.w3.org/2000/svg">
<path d="M25.5391 10.7207C25.7149 10.5449 25.9786 10.457 26.2422 10.457C26.418 10.457 26.6817 10.5449 26.8575 10.7207L43.1172 23.9922V38.4062C43.1172 39.1973 42.4141 39.8125 41.711 39.8125H31.7794C31.0762 39.8125 30.3731 39.1973 30.3731 38.4062V29.9688C30.3731 29.2656 29.7579 28.5625 28.9669 28.5625H23.3419C22.6387 28.5625 21.9356 29.2656 21.9356 29.9688V38.4062C21.9356 39.1973 21.3204 39.8125 20.6172 39.8125H10.7735C9.98248 39.8125 9.36725 39.1973 9.36725 38.4062V24.0801L25.5391 10.7207ZM51.1153 19.7734C51.379 19.9492 51.5547 20.3008 51.5547 20.5645C51.5547 20.8281 51.4669 21.0918 51.2911 21.2676L49.0059 23.9922C48.8301 24.2559 48.5665 24.3438 48.2149 24.3438C47.9512 24.3438 47.6876 24.2559 47.5118 24.0801L26.8575 7.11719C26.6817 6.94141 26.418 6.85352 26.2422 6.85352C25.9786 6.85352 25.7149 6.94141 25.5391 7.11719L4.88483 24.0801C4.70905 24.2559 4.44537 24.3438 4.1817 24.3438C3.83014 24.3438 3.56647 24.2559 3.39069 23.9922L1.10553 21.2676C1.01764 21.0918 0.841858 20.8281 0.841858 20.5645C0.841858 20.3008 1.01764 19.9492 1.28131 19.7734L23.5176 1.4043C24.2208 0.876953 25.1876 0.525391 26.2422 0.525391C27.209 0.525391 28.1758 0.876953 28.879 1.4043L36.7891 7.9082V1.58008C36.7891 0.964844 37.2286 0.525391 37.8438 0.525391H42.7657C43.293 0.525391 43.8204 0.964844 43.8204 1.58008V13.709L51.1153 19.7734Z" fill="#757575"/>
</svg>
