<svg width="52" height="40" viewBox="0 0 52 40" fill="none" xmlns="http://www.w3.org/2000/svg">
<path d="M37.5625 14.5C37.5625 22.3223 29.3008 28.5625 19.2812 28.5625C15.6777 28.5625 12.25 27.7715 9.4375 26.3652C7.50391 27.5078 4.86719 28.5625 1.70312 28.5625C1.35156 28.5625 1.17578 28.4746 1 28.2109C0.912109 27.9473 1 27.5957 1.17578 27.4199C1.17578 27.4199 3.10938 25.3105 4.33984 22.5859C2.23047 20.3008 1 17.5762 1 14.5C1 6.76562 9.17383 0.4375 19.2812 0.4375C29.3008 0.4375 37.5625 6.76562 37.5625 14.5ZM48.2852 33.8359C49.4277 36.5605 51.3613 38.6699 51.3613 38.6699C51.625 38.8457 51.625 39.1973 51.5371 39.4609C51.4492 39.7246 51.1855 39.8125 50.9219 39.8125C47.6699 39.8125 45.0332 38.7578 43.0996 37.6152C40.2871 39.0215 36.9473 39.8125 33.3438 39.8125C25.6973 39.8125 19.1934 36.2969 16.4688 31.2871C17.3477 31.375 18.3145 31.375 19.2812 31.375C30.8828 31.375 40.375 23.8164 40.375 14.5C40.375 13.9727 40.2871 13.3574 40.1992 12.7422C46.8789 14.8516 51.625 19.9492 51.625 25.75C51.625 28.8262 50.3066 31.5508 48.2852 33.8359Z" fill="#757575"/>
</svg>
