<svg width="47" height="46" viewBox="0 0 47 46" fill="none" xmlns="http://www.w3.org/2000/svg">
<path d="M10.5801 22.1582L1.79102 13.2812C0.648438 12.2266 0.648438 10.4688 1.79102 9.32617L9.70117 1.50391C10.7559 0.361328 12.5137 0.361328 13.5684 1.50391L16.5566 4.4043L11.1074 9.85352C10.8438 10.1172 10.8438 10.5566 11.1074 10.8203L12.1621 11.875C12.25 11.9629 12.4258 12.0508 12.6016 12.0508C12.7773 12.0508 12.9531 11.9629 13.1289 11.875L18.4902 6.42578L22.4453 10.293L10.5801 22.1582ZM44.6816 11.875L40.6387 15.918L30.707 5.98633L34.75 1.94336C36.4199 0.273438 39.0566 0.273438 40.7266 1.94336L44.6816 5.89844C46.3516 7.56836 46.3516 10.2051 44.6816 11.875ZM28.7734 7.91992L38.7051 17.8516L12.6016 43.9551L3.10938 45.625C1.87891 45.8887 0.736328 44.7461 1 43.5156L2.66992 34.0234L28.7734 7.91992ZM45.1211 33.0566C46.2637 34.1113 46.2637 35.8691 45.1211 36.9238L37.2988 44.834C36.1562 45.9766 34.3984 45.9766 33.3438 44.834L24.4668 36.0449L36.332 24.1797L40.1992 28.1348L34.75 33.4961C34.4863 33.7598 34.4863 34.1992 34.75 34.4629L35.8047 35.5176C36.0684 35.7812 36.5078 35.7812 36.7715 35.5176L42.2207 30.0684L45.1211 33.0566Z" fill="white"/>
</svg>
